#!OML:ASF G:\JayActor3\Patient Classification 1\Patient 1\Session 6\male.ASF
:FULLY-SPECIFIED
:DEGREES
2879
root -3.10713 16.305 -8.52264 547.525 -57.5839 -550.615
lowerback -4.0155 2.22131 4.37637
upperback 1.78362 2.67204 0.655125
thorax 4.26965 1.43018 -1.56515
lowerneck 4.22878 14.9495 10.1501
upperneck 3.5465 20.7834 -13.3747
head 2.84491 10.3897 -4.90232
rclavicle 1.63749e-014 6.36111e-015
rhumerus -59.3171 24.3635 -89.4493
rradius 98.6028
rwrist 14.7774
rhand -16.2097 -0.318515
rfingers 7.12502
rthumb 9.99781 -30.0611
lclavicle 1.63749e-014 6.36111e-015
lhumerus -79.2 -25.8234 96.2266
lradius 105.474
lwrist 5.28472
lhand -14.731 3.91883
lfingers 7.12502
lthumb 11.4242 33.5876
rfemur -7.76577 1.00642 10.6946
rtibia 40.1372
rfoot -33.6726 -19.9379
rtoes -0.0515271
lfemur 0.90088 14.6859 -27.7275
ltibia 18.2519
lfoot -15.5213 6.77706
ltoes -6.93034
2880
root -3.13159 16.2977 -8.50687 547.858 -57.8187 -550.896
lowerback -4.09429 2.2287 4.33377
upperback 1.69086 2.68876 0.562291
thorax 4.22102 1.43753 -1.63517
lowerneck 4.22092 14.9493 10.1332
upperneck 3.47268 20.775 -13.3617
head 2.82003 10.3868 -4.89952
rclavicle 8.22223e-014 -3.18055e-015
rhumerus -60.06 24.26 -89.6837
rradius 99.1827
rwrist 14.8514
rhand -16.2127 -0.281251
rfingers 7.12502
rthumb 9.99492 -30.0239
lclavicle 8.22223e-014 -3.18055e-015
lhumerus -79.4543 -25.8166 96.3483
lradius 105.735
lwrist 5.00467
lhand -15.0097 3.51498
lfingers 7.12502
lthumb 11.1554 33.1984
rfemur -7.83162 0.890131 10.4782
rtibia 40.3089
rfoot -33.8187 -20.0302
rtoes -0.218273
lfemur 0.807506 14.9486 -27.8828
ltibia 18.3363
lfoot -15.5808 6.25435
ltoes -6.89841
2881
root -3.15593 16.2901 -8.49111 548.173 -58.0536 -551.156
lowerback -4.17034 2.23502 4.30696
upperback 1.59602 2.70288 0.471826
thorax 4.16925 1.44374 -1.7119
lowerneck 4.20706 14.9514 10.1087
upperneck 3.40592 20.7691 -13.3379
head 2.79658 10.3848 -4.8918
rclavicle -3.2054e-014 -3.33958e-014
rhumerus -60.8062 24.1659 -89.9241
rradius 99.7333
rwrist 14.9341
rhand -16.2438 -0.233652
rfingers 7.12502
rthumb 9.965 -29.9778
lclavicle -3.2054e-014 -3.33958e-014
lhumerus -79.7202 -25.8154 96.4821
lradius 105.988
lwrist 4.75251
lhand -15.3056 3.0888
lfingers 7.12502
lthumb 10.87 32.7875
rfemur -7.88444 0.796332 10.2814
rtibia 40.4654
rfoot -33.9653 -20.1392
rtoes -0.390022
lfemur 0.697548 15.2392 -28.0161
ltibia 18.4574
lfoot -15.6501 5.70564
ltoes -6.88551
2882
root -3.17993 16.2824 -8.47563 548.482 -58.282 -551.403
lowerback -4.25181 2.24163 4.28451
upperback 1.50089 2.71647 0.383664
thorax 4.12039 1.44967 -1.7885
lowerneck 4.18276 14.9569 10.0787
upperneck 3.34734 20.7673 -13.3089
head 2.77658 10.3842 -4.88038
rclavicle -5.9536e-014 -2.8625e-014
rhumerus -61.5539 24.0781 -90.1706
rradius 100.261
rwrist 15.0256
rhand -16.2986 -0.183845
rfingers 7.12502
rthumb 9.91213 -29.9305
lclavicle -5.9536e-014 -2.8625e-014
lhumerus -79.9929 -25.8191 96.6253
lradius 106.236
lwrist 4.51407
lhand -15.617 2.65686
lfingers 7.12502
lthumb 10.5696 32.3711
rfemur -7.93925 0.725899 10.0994
rtibia 40.6171
rfoot -34.1197 -20.256
rtoes -0.544446
lfemur 0.568899 15.5546 -28.1356
ltibia 18.6052
lfoot -15.7265 5.13559
ltoes -6.87544
2883
root -3.2034 16.2746 -8.46074 548.805 -58.4988 -551.656
lowerback -4.34361 2.2509 4.25171
upperback 1.40595 2.7335 0.294651
thorax 4.07737 1.45705 -1.85947
lowerneck 4.1511 14.9649 10.0461
upperneck 3.28958 20.7684 -13.2798
head 2.75807 10.3847 -4.8677
rclavicle 1.12065e-014 -1.27222e-014
rhumerus -62.3065 23.9834 -90.4213
rradius 100.771
rwrist 15.1401
rhand -16.3718 -0.129702
rfingers 7.12502
rthumb 9.84145 -29.8797
lclavicle 1.12065e-014 -1.27222e-014
lhumerus -80.2712 -25.8321 96.7765
lradius 106.478
lwrist 4.27567
lhand -15.9428 2.22293
lfingers 7.12502
lthumb 10.2553 31.9529
rfemur -8.00969 0.675716 9.92134
rtibia 40.7737
rfoot -34.2807 -20.3807
rtoes -0.675906
lfemur 0.421888 15.8933 -28.2547
ltibia 18.7667
lfoot -15.8057 4.54793
ltoes -6.85928
2884
root -3.22638 16.2667 -8.44654 549.15 -58.6995 -551.923
lowerback -4.44903 2.26305 4.20335
upperback 1.31422 2.75447 0.202928
thorax 4.04504 1.46617 -1.92358
lowerneck 4.11117 14.9768 10.0165
upperneck 3.22637 20.7745 -13.2584
head 2.74099 10.3874 -4.85663
rclavicle -2.80783e-014 -3.02153e-014
rhumerus -63.0572 23.8826 -90.678
rradius 101.259
rwrist 15.2628
rhand -16.4704 -0.0623117
rfingers 7.12502
rthumb 9.74638 -29.8168
lclavicle -2.80783e-014 -3.02153e-014
lhumerus -80.5502 -25.8515 96.9259
lradius 106.719
lwrist 4.02556
lhand -16.2746 1.80677
lfingers 7.12502
lthumb 9.93522 31.5523
rfemur -8.10264 0.641982 9.74185
rtibia 40.9414
rfoot -34.4457 -20.5109
rtoes -0.791797
lfemur 0.263706 16.2478 -28.38
ltibia 18.9266
lfoot -15.8848 3.9512
ltoes -6.81941
2885
root -3.24875 16.2591 -8.43321 549.519 -58.8856 -552.203
lowerback -4.57259 2.27919 4.13616
upperback 1.22526 2.78091 0.109093
thorax 4.02543 1.47775 -1.97806
lowerneck 4.06944 14.9895 9.99125
upperneck 3.15166 20.7814 -13.2495
head 2.72263 10.3906 -4.84981
rclavicle -4.45775e-014 1.59028e-015
rhumerus -63.8061 23.7733 -90.9398
rradius 101.723
rwrist 15.3853
rhand -16.602 0.0227579
rfingers 7.12502
rthumb 9.61934 -29.7376
lclavicle -4.45775e-014 1.59028e-015
lhumerus -80.8285 -25.8804 97.0727
lradius 106.959
lwrist 3.76091
lhand -16.6082 1.40965
lfingers 7.12502
lthumb 9.61342 31.1703
rfemur -8.22333 0.623203 9.56178
rtibia 41.1223
rfoot -34.6163 -20.6476
rtoes -0.890871
lfemur 0.0961187 16.6147 -28.5132
ltibia 19.0721
lfoot -15.958 3.34543
ltoes -6.74496
2886
root -3.27072 16.2515 -8.42068 549.924 -59.057 -552.517
lowerback -4.70728 2.29795 4.04197
upperback 1.14199 2.81202 0.0104988
thorax 4.01721 1.49127 -2.02134
lowerneck 4.02858 15.0028 9.97082
upperneck 3.05762 20.7885 -13.2579
head 2.7008 10.3942 -4.84922
rclavicle 3.74958e-014 -1.59028e-015
rhumerus -64.5465 23.6572 -91.2029
rradius 102.161
rwrist 15.4997
rhand -16.7527 0.120652
rfingers 7.12502
rthumb 9.47396 -29.6464
lclavicle 3.74958e-014 -1.59028e-015
lhumerus -81.1037 -25.9175 97.2123
lradius 107.199
lwrist 3.48131
lhand -16.9343 1.03414
lfingers 7.12502
lthumb 9.2987 30.8091
rfemur -8.36158 0.612523 9.36714
rtibia 41.3162
rfoot -34.7872 -20.79
rtoes -0.991225
lfemur -0.0653208 16.9894 -28.6643
ltibia 19.1934
lfoot -16.0248 2.73481
ltoes -6.63934
2887
root -3.29235 16.2439 -8.40868 550.351 -59.2181 -552.855
lowerback -4.84703 2.31724 3.93057
upperback 1.06431 2.84475 -0.0921686
thorax 4.01712 1.50541 -2.05865
lowerneck 3.98612 15.0173 9.95115
upperneck 2.94782 20.7965 -13.2774
head 2.67589 10.3984 -4.8522
rclavicle -4.41053e-014 -1.59028e-014
rhumerus -65.2873 23.5313 -91.4689
rradius 102.579
rwrist 15.6002
rhand -16.92 0.233867
rfingers 7.12502
rthumb 9.31251 -29.5404
lclavicle -4.41053e-014 -1.59028e-014
lhumerus -81.3751 -25.9584 97.3408
lradius 107.439
lwrist 3.19302
lhand -17.2389 0.678789
lfingers 7.12502
lthumb 9.00486 30.4666
rfemur -8.50963 0.604197 9.16188
rtibia 41.5199
rfoot -34.9583 -20.9322
rtoes -1.09055
lfemur -0.212977 17.3677 -28.827
ltibia 19.2849
lfoot -16.0826 2.11928
ltoes -6.50113
2888
root -3.31345 16.2362 -8.39669 550.81 -59.3813 -553.231
lowerback -4.98259 2.33196 3.80268
upperback 0.989657 2.87289 -0.200328
thorax 4.01694 1.51694 -2.09287
lowerneck 3.94736 15.0311 9.93468
upperneck 2.82168 20.803 -13.3129
head 2.64745 10.4022 -4.86116
rclavicle -4.8901e-014 -1.74931e-014
rhumerus -66.0233 23.3996 -91.7362
rradius 102.977
rwrist 15.6796
rhand -17.073 0.346986
rfingers 7.12502
rthumb 9.16491 -29.4339
lclavicle -4.8901e-014 -1.74931e-014
lhumerus -81.6447 -26.0013 97.4595
lradius 107.674
lwrist 2.90893
lhand -17.5232 0.344837
lfingers 7.12502
lthumb 8.73049 30.1443
rfemur -8.65636 0.579467 8.93612
rtibia 41.7298
rfoot -35.1311 -21.0621
rtoes -1.18425
lfemur -0.341227 17.7455 -29.0055
ltibia 19.3462
lfoot -16.1319 1.48905
ltoes -6.32869
2889
root -3.33422 16.2283 -8.38446 551.295 -59.5496 -553.646
lowerback -5.10365 2.34021 3.66078
upperback 0.917261 2.89413 -0.312718
thorax 4.00994 1.52466 -2.12474
lowerneck 3.90562 15.0471 9.9153
upperneck 2.68786 20.8117 -13.3543
head 2.61783 10.407 -4.87124
rclavicle 1.86361e-014 2.06736e-014
rhumerus -66.7598 23.2733 -92.0085
rradius 103.347
rwrist 15.7359
rhand -17.2279 0.457257
rfingers 7.12502
rthumb 9.01539 -29.3301
lclavicle 1.86361e-014 2.06736e-014
lhumerus -81.9171 -26.0403 97.5725
lradius 107.905
lwrist 2.63145
lhand -17.7855 0.0168417
lfingers 7.12502
lthumb 8.47731 29.8267
rfemur -8.78981 0.530747 8.68754
rtibia 41.9414
rfoot -35.2979 -21.1818
rtoes -1.29322
lfemur -0.444528 18.117 -29.1985
ltibia 19.3836
lfoot -16.1753 0.847996
ltoes -6.12185
2890
root -3.35448 16.2201 -8.37178 551.782 -59.7265 -554.076
lowerback -5.20578 2.34213 3.5197
upperback 0.846461 2.90763 -0.425711
thorax 3.99349 1.52839 -2.15908
lowerneck 3.86517 15.064 9.89347
upperneck 2.54848 20.8211 -13.401
head 2.58676 10.4123 -4.8828
rclavicle -4.67641e-014 1.59028e-014
rhumerus -67.4959 23.1532 -92.2863
rradius 103.69
rwrist 15.7844
rhand -17.3783 0.55195
rfingers 7.12502
rthumb 8.87031 -29.2416
lclavicle -4.67641e-014 1.59028e-014
lhumerus -82.1932 -26.0764 97.6828
lradius 108.127
lwrist 2.36421
lhand -18.0281 -0.312584
lfingers 7.12502
lthumb 8.24321 29.5066
rfemur -8.90437 0.457653 8.42938
rtibia 42.1501
rfoot -35.4632 -21.2796
rtoes -1.39598
lfemur -0.524866 18.4767 -29.3926
ltibia 19.4061
lfoot -16.2155 0.201417
ltoes -5.89652
2891
root -3.37412 16.2115 -8.35866 552.262 -59.9114 -554.512
lowerback -5.2831 2.33934 3.38342
upperback 0.776376 2.91537 -0.53805
thorax 3.96364 1.52914 -2.19693
lowerneck 3.82718 15.0808 9.87179
upperneck 2.40533 20.8303 -13.4516
head 2.55463 10.4175 -4.89586
rclavicle -1.00933e-013 1.90833e-014
rhumerus -68.237 23.0373 -92.5727
rradius 104.006
rwrist 15.8332
rhand -17.5372 0.639767
rfingers 7.12502
rthumb 8.71699 -29.1602
lclavicle -1.00933e-013 1.90833e-014
lhumerus -82.4784 -26.1127 97.7967
lradius 108.337
lwrist 2.1038
lhand -18.2649 -0.649482
lfingers 7.12502
lthumb 8.01467 29.1786
rfemur -8.99605 0.364944 8.16839
rtibia 42.3512
rfoot -35.6223 -21.3627
rtoes -1.50638
lfemur -0.587995 18.8112 -29.5845
ltibia 19.4274
lfoot -16.2569 -0.430937
ltoes -5.65914
2892
root -3.39313 16.2027 -8.34519 552.71 -60.0987 -554.927
lowerback -5.33281 2.33454 3.26252
upperback 0.706436 2.92005 -0.646433
thorax 3.91881 1.52843 -2.24065
lowerneck 3.79552 15.0987 9.85009
upperneck 2.25272 20.8404 -13.5057
head 2.5192 10.4237 -4.91075
rclavicle 2.88238e-015 -2.70347e-014
rhumerus -68.9789 22.9295 -92.8693
rradius 104.297
rwrist 15.8998
rhand -17.6958 0.710347
rfingers 7.12502
rthumb 8.56389 -29.096
lclavicle 2.88238e-015 -2.70347e-014
lhumerus -82.774 -26.1487 97.9149
lradius 108.537
lwrist 1.8441
lhand -18.4966 -0.984407
lfingers 7.12502
lthumb 7.79108 28.852
rfemur -9.06588 0.264274 7.91974
rtibia 42.5394
rfoot -35.7702 -21.4359
rtoes -1.62449
lfemur -0.64201 19.1183 -29.7628
ltibia 19.4613
lfoot -16.3036 -1.0368
ltoes -5.41788
2893
root -3.41144 16.1941 -8.33162 553.105 -60.2855 -555.291
lowerback -5.35897 2.33083 3.16591
upperback 0.634957 2.92481 -0.746351
thorax 3.85996 1.52795 -2.29015
lowerneck 3.77504 15.1161 9.82993
upperneck 2.09068 20.8497 -13.5623
head 2.47956 10.4301 -4.92797
rclavicle -5.25288e-014 -2.78299e-014
rhumerus -69.7244 22.8269 -93.1766
rradius 104.564
rwrist 15.9799
rhand -17.8597 0.784266
rfingers 7.12502
rthumb 8.40571 -29.0285
lclavicle -5.25288e-014 -2.78299e-014
lhumerus -83.0811 -26.1867 98.0403
lradius 108.726
lwrist 1.584
lhand -18.7199 -1.31708
lfingers 7.12502
lthumb 7.57556 28.5272
rfemur -9.11892 0.169988 7.70244
rtibia 42.7107
rfoot -35.913 -21.506
rtoes -1.73951
lfemur -0.700607 19.3961 -29.9155
ltibia 19.5196
lfoot -16.3572 -1.60299
ltoes -5.19875
